<svg width="40" height="40" viewBox="0 0 40 40" fill="none" xmlns="http://www.w3.org/2000/svg">
<path d="M20 0C8.9543 0 0 8.9543 0 20C0 31.0457 8.9543 40 20 40C31.0457 40 40 31.0457 40 20C39.9871 8.95961 31.0404 0.0128906 20 0ZM20 38.3334C9.87477 38.3334 1.66664 30.1252 1.66664 20C1.66664 9.87477 9.87477 1.66664 20 1.66664C30.1252 1.66664 38.3334 9.87477 38.3334 20C38.3219 30.1205 30.1205 38.3219 20 38.3334Z" fill="white"/>
<path d="M25.6509 15.8335L24.1417 9.79846L22.5251 10.2018L23.9326 15.8335H16.0675L17.475 10.2018L15.8584 9.79846L14.3492 15.8335H10V17.5001H11.785L13.3434 27.6267C13.4059 28.0332 13.7555 28.3332 14.1667 28.3334H25.8334C26.2445 28.3332 26.5942 28.0332 26.6567 27.6267L28.215 17.5001H30V15.8335H25.6509ZM25.1184 26.6667H14.8816L13.4716 17.5001H26.5283L25.1184 26.6667Z" fill="white"/>
<path d="M17.5 19.1666H15.8334V25H17.5V19.1666Z" fill="white"/>
<path d="M20.8333 19.1666H19.1666V25H20.8333V19.1666Z" fill="white"/>
<path d="M24.1666 19.1666H22.5V25H24.1666V19.1666Z" fill="white"/>
</svg>
