<svg width="33" height="24" viewBox="0 0 33 24" fill="none" xmlns="http://www.w3.org/2000/svg">
<path d="M32.213 4.29874C31.8349 2.89303 30.7266 1.78492 29.3211 1.40641C26.7534 0.703857 16.4825 0.703857 16.4825 0.703857C16.4825 0.703857 6.21198 0.703857 3.6443 1.37977C2.26583 1.75789 1.13049 2.89323 0.752376 4.29874C0.0766602 6.86622 0.0766602 12.1909 0.0766602 12.1909C0.0766602 12.1909 0.0766602 17.5423 0.752376 20.083C1.13089 21.4885 2.23879 22.5966 3.6445 22.9751C6.23902 23.6778 16.4829 23.6778 16.4829 23.6778C16.4829 23.6778 26.7534 23.6778 29.3211 23.0019C30.7268 22.6236 31.8349 21.5155 32.2134 20.11C32.889 17.5423 32.889 12.2179 32.889 12.2179C32.889 12.2179 32.916 6.86622 32.213 4.29874ZM13.2125 17.1099V7.27177L21.7533 12.1909L13.2125 17.1099Z" fill="white"/>
</svg>
